:SAMPLES-PER-SECOND 30
:FULLY-SPECIFIED
:DEGREES
754
root  -6.0365 39.722 30.628 -173.259 -86.5486 167.082
RightUpLeg  4.95498 -9.36071 0.241988
RightLeg  20.3898 0.890058 1.57416
RightFoot  -17.0715 -0.478947 -7.24443
RightToes  0.00048216 0.542163 -0.142577
Spine  8.29935 0.420196 9.5769
Spine1  8.25884 2.13915 -2.74601
HEad  0.305178 -19.3201 2.42659
LeftShoulder1  7.75155 -11.6524 -44.5436
LeftArm  -8.01397 23.9493 -29.6732
LeftForeArm  33.2492 -26.1298 -3.84289
LeftHand  -0.25398 0.0180481 5.50724
RightShoulder  4.60899 7.88171 34.5263
RightArm  10.1088 -1.44052 40.4544
RightForeArm  7.82705 34.4126 7.25002
RightHand  -0.89439 2.05464 -14.1185
LeftUpLeg  -19.5915 9.11808 3.70343
LeftLeg  29.346 2.4827 2.07235
LeftFoot  0.272947 0.355512 -3.5081
LeftToes  1.06247e-005 4.65855e-005 -8.18501e-006
755
root  -7.63042 39.7376 30.8669 -171.132 -84.0138 165.281
RightUpLeg  8.15417 -8.96677 -1.66606
RightLeg  18.3682 3.41046 2.27228
RightFoot  -18.0423 -0.536654 -7.09202
RightToes  0.00048216 0.542163 -0.142577
Spine  7.73216 0.925596 8.94169
Spine1  8.65201 2.71033 -3.81938
HEad  0.266268 -18.2962 3.36477
LeftShoulder1  7.65211 -11.5472 -44.2668
LeftArm  -7.97529 24.6625 -29.7297
LeftForeArm  33.1082 -25.2215 -3.65646
LeftHand  -0.25398 0.0180481 5.50724
RightShoulder  4.65276 7.96741 34.6047
RightArm  12.0272 0.571397 40.8131
RightForeArm  8.70841 36.1089 7.67067
RightHand  -0.892334 2.06871 -14.0619
LeftUpLeg  -18.2881 10.1626 3.96226
LeftLeg  14.6144 0.913955 -0.255463
LeftFoot  0.598905 0.408053 -3.95029
LeftToes  1.06247e-005 4.65855e-005 -8.18501e-006
756
root  -9.27763 39.6228 31.1475 -171.648 -81.5499 165.623
RightUpLeg  11.3321 -8.64858 -3.81856
RightLeg  17.456 6.13672 2.64773
RightFoot  -19.3742 -0.536541 -5.78431
RightToes  0.00048216 0.542163 -0.142577
Spine  7.60348 1.31264 8.36362
Spine1  9.1905 3.27225 -4.59504
HEad  0.303074 -17.5533 4.11225
LeftShoulder1  7.59986 -11.4494 -44.2507
LeftArm  -7.79014 25.1511 -29.6811
LeftForeArm  32.8031 -23.921 -3.41671
LeftHand  -0.25398 0.0180481 5.50724
RightShoulder  4.60879 7.84529 34.6527
RightArm  14.0098 2.616 41.26
RightForeArm  9.43146 36.5235 7.74711
RightHand  -0.936947 2.38994 -14.1704
LeftUpLeg  -15.8212 6.19412 6.21971
LeftLeg  1.98565 6.56304 -2.87579
LeftFoot  -0.928902 0.527571 -5.75663
LeftToes  1.06247e-005 4.65855e-005 -8.18501e-006
757
root  -11.025 39.38 31.4883 -173.119 -79.5669 166.671
RightUpLeg  14.208 -8.19611 -5.85077
RightLeg  17.8902 7.87345 2.72802
RightFoot  -20.6042 -0.493214 -4.35093
RightToes  0.00048216 0.542163 -0.142577
Spine  7.37123 1.45529 8.18162
Spine1  9.803 3.59488 -5.16455
HEad  0.57257 -17.0642 4.32342
LeftShoulder1  7.57187 -11.3905 -44.262
LeftArm  -7.77516 25.6081 -29.6444
LeftForeArm  32.666 -22.379 -3.25986
LeftHand  -0.25398 0.0180481 5.50724
RightShoulder  4.60416 7.82407 34.6874
RightArm  15.4789 4.19699 41.8542
RightForeArm  9.87369 35.7333 7.49597
RightHand  -0.989561 2.7308 -14.353
LeftUpLeg  -14.519 5.35312 6.7826
LeftLeg  -3.7899 11.6022 -4.59464
LeftFoot  -2.63137 0.519922 -6.56438
LeftToes  1.06247e-005 4.65855e-005 -8.18501e-006
758
root  -12.8281 39.125 31.8507 -172.512 -78.4856 165.8
RightUpLeg  16.6183 -6.93315 -7.62278
RightLeg  18.8793 7.85283 2.53874
RightFoot  -21.235 -0.390434 -2.87698
RightToes  0.00048216 0.542163 -0.142577
Spine  6.94785 1.30529 7.6008
Spine1  10.316 3.55606 -5.5
HEad  1.20007 -16.8545 4.45244
LeftShoulder1  7.56613 -11.3778 -44.2665
LeftArm  -7.84423 26.0088 -29.5207
LeftForeArm  32.8378 -20.5965 -3.31621
LeftHand  -0.25398 0.0180481 5.50724
RightShoulder  4.72187 8.07332 34.8265
RightArm  15.6304 4.57756 42.2311
RightForeArm  10.0494 34.3669 7.10667
RightHand  -0.994263 2.75586 -14.3783
LeftUpLeg  -15.1699 5.57642 5.80344
LeftLeg  -1.5821 15.05 -4.70814
LeftFoot  -0.784806 0.422048 -4.64339
LeftToes  1.06247e-005 4.65855e-005 -8.18501e-006
759
root  -14.6805 38.8191 32.2148 -170.341 -77.9619 163.091
RightUpLeg  18.6076 -4.25981 -9.1029
RightLeg  21.2224 6.62007 2.46783
RightFoot  -21.6049 -0.0704868 0.795721
RightToes  0.00048216 0.542163 -0.142577
Spine  6.87066 1.25018 6.31795
Spine1  10.4653 3.32935 -5.07466
HEad  1.90309 -17.323 4.814
LeftShoulder1  7.60812 -11.3864 -44.4967
LeftArm  -7.99445 25.8975 -29.1263
LeftForeArm  33.4562 -18.5024 -3.57399
LeftHand  -0.25398 0.0180481 5.50724
RightShoulder  4.89799 8.37358 35.2716
RightArm  14.235 3.70068 41.9913
RightForeArm  9.80384 32.6869 6.67463
RightHand  -1.01089 2.81627 -14.5107
LeftUpLeg  -16.8661 7.40538 3.47717
LeftLeg  5.73806 13.0631 -2.65008
LeftFoot  4.56156 0.322887 -2.47997
LeftToes  1.06247e-005 4.65855e-005 -8.18501e-006
760
root  -16.5085 38.5361 32.5482 -166.363 -77.3436 158.099
RightUpLeg  19.4102 -1.36121 -10.8312
RightLeg  26.3023 4.74468 2.32661
RightFoot  -19.8469 0.348269 6.85983
RightToes  0.00048216 0.542163 -0.142577
Spine  7.41283 1.53061 4.19386
Spine1  10.5115 3.2245 -4.08166
HEad  2.41124 -18.4845 5.44266
LeftShoulder1  7.68745 -11.4054 -44.9214
LeftArm  -8.66085 25.0904 -28.5517
LeftForeArm  34.4517 -16.395 -3.8961
LeftHand  -0.25398 0.0180481 5.50724
RightShoulder  5.02265 8.47937 35.9351
RightArm  12.0863 2.33135 41.5622
RightForeArm  8.5972 29.8641 6.0073
RightHand  -1.1838 3.64464 -15.4201
LeftUpLeg  -18.1484 13.8166 -0.800099
LeftLeg  13.3156 3.65062 -0.229575
LeftFoot  8.40065 0.285173 -1.92079
LeftToes  1.06247e-005 4.65855e-005 -8.18501e-006
761
root  -18.2374 38.4482 32.8478 -161.219 -76.1719 152.052
RightUpLeg  17.1345 0.427738 -13.0294
RightLeg  35.1412 1.43429 0.737276
RightFoot  -12.5464 0.0449256 10.802
RightToes  0.00048216 0.542163 -0.142577
Spine  8.0824 1.91672 1.79204
Spine1  10.6528 3.36386 -3.51911
HEad  2.85199 -19.6191 5.91083
LeftShoulder1  7.76434 -11.4713 -45.1819
LeftArm  -9.65867 24.1354 -28.1083
LeftForeArm  34.9126 -15.0325 -4.02966
LeftHand  -0.25398 0.0180481 5.50724
RightShoulder  5.07037 8.47259 36.3461
RightArm  9.94 1.30239 41.8625
RightForeArm  6.58204 24.9208 5.15993
RightHand  -1.47952 4.93926 -16.8864
LeftUpLeg  -18.0518 16.9694 -3.82845
LeftLeg  18.8588 -0.436932 0.372383
LeftFoot  6.90093 0.248111 -1.79872
LeftToes  1.06247e-005 4.65855e-005 -8.18501e-006
762
root  -19.8257 38.5316 33.1277 -157.482 -74.2838 147.931
RightUpLeg  11.1708 1.64026 -14.9711
RightLeg  46.4902 -2.39027 -3.03295
RightFoot  -0.5253 -0.774257 8.66794
RightToes  0.00048216 0.542163 -0.142577
Spine  8.70476 2.176 -0.168918
Spine1  10.6159 3.59968 -3.85063
HEad  3.41338 -19.9495 5.7106
LeftShoulder1  7.81989 -11.6042 -45.1028
LeftArm  -10.2717 23.5957 -27.9477
LeftForeArm  34.2864 -14.9593 -3.95528
LeftHand  -0.25398 0.0180481 5.50724
RightShoulder  5.10821 8.58024 36.2845
RightArm  5.3359 0.973472 42.7774
RightForeArm  7.83036 18.1242 5.47105
RightHand  -1.56096 5.20346 -17.3635
LeftUpLeg  -16.646 18.0469 -5.65021
LeftLeg  22.0586 0.467897 0.541959
LeftFoot  2.51452 0.14003 -1.26705
LeftToes  1.06247e-005 4.65855e-005 -8.18501e-006
763
root  -21.2426 38.6622 33.3741 -156.673 -72.0701 146.853
RightUpLeg  3.78651 2.67893 -16.0347
RightLeg  56.759 -3.69956 -6.41972
RightFoot  8.72786 -0.58273 3.494
RightToes  0.00048216 0.542163 -0.142577
Spine  9.84 2.32755 -1.66113
Spine1  10.3055 3.65584 -4.38039
HEad  3.83633 -19.4428 5.02042
LeftShoulder1  7.86416 -11.7477 -44.925
LeftArm  -10.1172 23.2214 -27.9275
LeftForeArm  33.1958 -15.9996 -3.81679
LeftHand  -0.25398 0.0180481 5.50724
RightShoulder  5.18561 8.81476 36.1118
RightArm  -3.23922 1.2001 43.2091
RightForeArm  15.355 11.3483 7.00754
RightHand  -1.20236 3.61229 -15.6586
LeftUpLeg  -14.557 19.5484 -7.06084
LeftLeg  23.3399 1.32542 0.962513
LeftFoot  -0.984177 0.065664 -0.671805
LeftToes  1.06247e-005 4.65855e-005 -8.18501e-006
764
root  -22.5859 38.8993 33.5836 -158.804 -70.6135 148.456
RightUpLeg  -2.54476 2.67066 -15.7007
RightLeg  63.4165 -3.05333 -7.15449
RightFoot  10.7286 -0.10503 0.872455
RightToes  0.00048216 0.542163 -0.142577
Spine  11.4502 2.17931 -2.24824
Spine1  10.0155 3.27841 -4.09309
HEad  3.78123 -18.7041 4.48582
LeftShoulder1  7.89106 -11.8184 -44.8687
LeftArm  -9.2836 22.3619 -27.8497
LeftForeArm  32.3863 -17.6582 -3.64928
LeftHand  -0.25398 0.0180481 5.50724
RightShoulder  5.2576 8.97512 36.1473
RightArm  -6.3379 1.41619 43.0139
RightForeArm  20.0348 7.54002 6.87813
RightHand  -0.708571 1.21892 -12.5615
LeftUpLeg  -11.6229 20.3547 -7.15672
LeftLeg  23.3385 1.74204 1.16328
LeftFoot  -2.95998 0.0614038 -0.606827
LeftToes  1.06247e-005 4.65855e-005 -8.18501e-006
765
root  -23.8953 39.2279 33.7443 -161.787 -70.3462 151.036
RightUpLeg  -7.48705 0.886157 -14.2189
RightLeg  65.7337 -2.12526 -5.82868
RightFoot  8.53965 -0.285592 2.00321
RightToes  0.00048216 0.542163 -0.142577
Spine  12.8237 1.64013 -2.12498
Spine1  10.0377 2.45765 -3.10508
HEad  3.47547 -18.2468 4.19426
LeftShoulder1  7.87145 -11.806 -44.7904
LeftArm  -8.19593 20.9972 -27.7076
LeftForeArm  31.9941 -19.7301 -3.43065
LeftHand  -0.25398 0.0180481 5.50724
RightShoulder  5.24415 8.94144 36.1528
RightArm  -6.02567 0.902177 42.447
RightForeArm  22.5845 6.95701 6.72914
RightHand  -0.45693 -0.190347 -10.2792
LeftUpLeg  -8.34229 20.5099 -6.37608
LeftLeg  22.4513 2.06937 1.27753
LeftFoot  -4.59187 0.080661 -0.897765
LeftToes  1.06247e-005 4.65855e-005 -8.18501e-006
766
root  -25.1815 39.4802 33.8458 -163.83 -70.6067 153.165
RightUpLeg  -11.8229 -2.08724 -12.3542
RightLeg  64.3995 -1.65032 -4.38034
RightFoot  6.14348 -0.609518 4.21634
RightToes  0.00048216 0.542163 -0.142577
Spine  13.593 1.02322 -2.08136
Spine1  10.141 1.45757 -2.11008
HEad  3.41073 -18.126 3.79718
LeftShoulder1  7.79326 -11.7524 -44.4879
LeftArm  -7.66425 19.733 -27.6086
LeftForeArm  32.184 -22.3378 -3.31674
LeftHand  -0.25398 0.0180481 5.50724
RightShoulder  5.14235 8.79267 35.842
RightArm  -4.47274 -0.792651 41.8092
RightForeArm  22.8085 8.66208 6.95178
RightHand  -0.484251 0.0489811 -10.3311
LeftUpLeg  -5.62787 20.5702 -5.69688
LeftLeg  21.5669 2.44475 1.42851
LeftFoot  -6.45863 0.0705379 -0.720261
LeftToes  1.06247e-005 4.65855e-005 -8.18501e-006
767
root  -26.4858 39.6858 33.9037 -165.146 -70.6479 154.708
RightUpLeg  -15.5216 -5.14408 -10.376
RightLeg  60.0357 -1.97786 -4.1962
RightFoot  4.35964 -0.523138 3.98076
RightToes  0.00048216 0.542163 -0.142577
Spine  14.1435 0.566699 -2.25057
Spine1  10.0069 0.615371 -1.25281
HEad  3.63932 -18.1437 3.60272
LeftShoulder1  7.66844 -11.665 -44.0044
LeftArm  -8.48289 18.9147 -27.5251
LeftForeArm  33.4649 -25.5603 -3.69029
LeftHand  -0.25398 0.0180481 5.50724
RightShoulder  5.04357 8.65946 35.4958
RightArm  -0.654788 -3.28332 40.91
RightForeArm  19.0724 11.8739 7.03984
RightHand  -0.670375 1.17133 -11.9789
LeftUpLeg  -2.83303 20.6016 -5.20915
LeftLeg  20.191 2.79042 1.30044
LeftFoot  -7.93265 0.0529781 -0.187517
LeftToes  1.06247e-005 4.65855e-005 -8.18501e-006
